PathFileType	4	(X/Y/Z)	D:\TRACE\v60_Jaco2_6-2-23\BothDRS_Motion1_5-v60.trc
DataRate	CameraRate	NumFrames	NumMarkers	Units	OrigDataRate	OrigDataStartFrame	OrigNumFrames
100.00	100.00	      24	9	mm	100.00	858	      6863
Frame#	Time	front left toe			Front right toe			aft left toe			aft right toe			Arm			FL body			FR body			AL Body			AR Body			
		X1	Y1	Z1	X2	Y2	Z2	X3	Y3	Z3	X4	Y4	Z4	X5	Y5	Z5	X6	Y6	Z6	X7	Y7	Z7	X8	Y8	Z8	X9	Y9	Z9	

858	8.570	-270.29489	107.39828	-288.96460	96.52951	21.89204	-328.97202	-259.07040	6.88983	308.66391	129.40561	92.15048	322.36301	-75.85305	1215.20471	-384.41168	-171.77365	591.11981	-435.44214	-11.05432	591.67065	-441.94006	-134.31281	537.55151	508.45993	20.73417	531.44806	501.71103	
859	8.580	-268.70779	97.99228	-288.31992	97.71444	21.63019	-328.86374	-257.56610	6.63141	308.93179	131.29059	81.85456	324.18729	-75.47204	1214.74731	-385.44266	-169.83279	590.67609	-435.05197	-9.54330	591.30164	-441.48877	-133.36812	537.50378	508.87720	21.78601	531.77649	502.27838	
860	8.590	-266.61633	88.28439	-287.64166	98.50368	21.29238	-329.02802	-256.81027	6.83038	308.55615	133.16469	70.84380	326.01688	-74.93665	1214.50696	-386.12662	-168.28737	590.07532	-434.47406	-8.47721	590.84137	-440.67023	-132.34772	537.64069	509.68164	22.63038	531.90948	502.88922	
861	8.600	-264.12323	78.51439	-286.42798	99.63924	21.17519	-328.88464	-255.92183	6.96929	308.38748	133.96198	60.15663	327.38995	-73.75395	1214.16406	-386.77713	-166.79909	589.69806	-434.18692	-6.72461	590.67151	-440.42981	-131.79123	537.83929	510.00977	23.15368	532.05505	503.43192	
862	8.610	-261.40448	68.59388	-285.38635	100.68757	21.10797	-328.87399	-255.18327	7.25677	308.33173	135.48131	50.60046	328.23972	-73.12804	1213.89221	-387.51645	-165.19376	589.03766	-433.61377	-5.11652	590.52789	-439.77258	-130.39453	537.83728	510.50717	24.31411	532.11157	504.19412	
863	8.620	-259.02142	58.63520	-284.18066	101.82243	20.82977	-329.03229	-253.93637	7.52571	308.36502	137.01198	40.91767	328.88785	-72.05745	1213.65808	-388.10910	-164.02342	588.83319	-433.28973	-3.88389	590.33820	-439.13477	-129.59712	538.10779	510.79800	25.17783	532.14661	504.69376	
864	8.630	-257.05258	49.50119	-283.52216	102.61216	20.47936	-329.09589	-254.43088	8.56946	308.18079	138.57713	32.00329	329.30536	-71.12157	1213.38904	-388.80673	-162.88551	588.49585	-433.03677	-2.12660	589.81305	-438.79443	-128.88000	537.90363	511.30475	26.03803	532.39172	505.18851	
865	8.640	-255.19896	40.62577	-282.85791	103.75047	20.29744	-329.08020	-253.05688	8.54396	308.17953	140.05128	23.75496	329.41022	-70.10384	1213.25793	-389.29752	-160.95961	587.98267	-432.37802	-0.59113	589.60596	-438.21957	-127.70352	537.68457	511.75656	27.48801	532.35809	505.69772	
866	8.650	-253.92677	33.12276	-282.56015	104.54671	20.04387	-329.12558	-251.62106	8.25668	308.01379	141.49847	16.70360	329.40808	-69.17957	1212.84265	-390.01108	-159.61249	587.65704	-432.32425	1.56762	589.40228	-437.64172	-126.84571	537.31622	512.24109	28.25173	532.11426	506.29636	
867	8.660	-252.61153	27.10264	-282.27451	105.62392	19.68886	-329.26239	-250.69048	8.08659	308.06650	143.43114	17.58626	326.57346	-67.48674	1212.50134	-390.54144	-157.43289	586.96936	-431.41867	1.98186	588.85754	-437.21130	-125.38570	536.69385	512.48499	27.55089	531.41998	505.58899	
868	8.670	-251.01253	22.56159	-283.03760	106.81157	19.34163	-329.08258	-249.39700	8.43861	307.97476	144.23048	14.07901	328.12271	-66.01284	1212.12573	-391.04361	-156.26945	586.44849	-431.38535	3.92582	588.35870	-436.69162	-124.28197	537.71399	512.97876	33.82272	534.22906	509.39499	
869	8.680	-251.43271	22.14578	-284.77927	107.67027	19.15646	-329.00858	-248.42950	9.00185	307.96460	146.12016	16.18993	327.01910	-65.27409	1211.88867	-391.88638	-154.21982	585.64612	-430.75732	5.23360	588.06982	-436.25516	-123.75775	538.54498	513.47974	34.26228	535.84070	510.67206	
870	8.690	-250.54820	20.29142	-283.88263	108.66119	19.24619	-328.82669	-247.24966	9.67621	308.18262	146.62964	15.30616	328.35126	-64.25613	1211.81396	-393.33075	-152.95432	586.41425	-430.58789	7.06409	588.31598	-435.31305	-122.62621	539.52539	514.06390	28.27924	535.04718	508.68164	
871	8.700	-249.89880	21.09550	-284.28033	109.97696	21.25545	-329.74445	-246.12022	11.69119	307.47507	147.28073	15.03442	328.58286	-63.48303	1212.23706	-395.48288	-150.58849	587.66882	-429.83963	9.08412	589.62024	-435.26843	-121.58164	539.52771	514.36847	36.78542	536.48865	511.14017	
872	8.710	-247.83092	20.38608	-283.77948	108.14725	24.82045	-327.27209	-242.86420	14.96402	307.48343	148.51631	14.76298	327.63779	-62.29164	1212.72778	-397.28491	-149.94083	589.28290	-430.08316	10.10036	590.77582	-434.57602	-121.24948	538.99200	514.52545	34.12162	534.31030	509.46359	
873	8.720	-246.77773	20.78572	-284.59390	107.35954	29.10957	-323.68536	-238.37706	16.96939	310.82846	149.56128	14.94971	327.85034	-60.63026	1213.44409	-397.57303	-148.25092	589.62384	-429.98560	12.06072	591.74078	-434.93085	-120.51185	538.71014	514.44635	34.90683	534.28168	509.51614	
874	8.730	-246.21379	20.12401	-285.01147	107.41701	37.82500	-322.07056	-232.41066	25.16168	311.43881	150.50674	15.17296	327.65155	-58.59245	1214.85315	-397.04684	-146.55853	589.33844	-429.84891	13.09338	591.69147	-434.71024	-119.34354	539.15381	514.43091	39.38908	536.38812	511.36957	
875	8.740	-245.40088	19.72662	-284.57965	109.16174	47.30698	-320.87546	-229.11258	34.39361	311.01425	151.65274	15.42893	327.68008	-56.31789	1215.87781	-396.44269	-146.52365	589.41663	-430.08966	14.18238	591.27374	-434.71375	-118.47041	539.45984	514.70490	40.21887	536.91492	511.51285	
876	8.750	-244.40331	19.50816	-284.92899	111.28026	58.64508	-320.85846	-227.06485	44.58004	311.81134	152.35535	15.21722	327.55109	-54.21886	1216.34241	-396.88953	-145.37032	588.76404	-429.61316	14.82671	590.74689	-434.24713	-116.78678	539.34698	514.89056	38.18647	535.57941	509.71487	
877	8.760	-243.54182	19.56966	-284.65219	113.84726	70.39291	-320.96173	-229.49260	59.15850	311.04630	153.63361	15.31741	327.56796	-52.43357	1216.07617	-398.12234	-144.82652	588.54871	-429.31525	15.51534	590.63965	-434.28052	-116.06123	539.56342	515.15875	39.29763	535.25885	510.10696	
878	8.770	-242.45049	19.03054	-284.61646	116.60275	82.43870	-320.42432	-230.14699	68.36572	312.76306	154.42224	15.35737	327.30106	-51.71766	1215.28394	-399.90857	-143.65050	588.15094	-428.71317	16.07379	590.30579	-433.94363	-114.28601	538.94794	515.51031	41.16665	534.56262	510.54648	
879	8.780	-241.66629	18.67579	-284.81042	117.70416	94.20018	-319.90640	-231.53886	80.60915	313.87708	155.18553	15.33348	327.20367	-51.90354	1213.92310	-402.14050	-143.50565	587.96155	-428.35715	16.60698	589.83350	-433.59085	-113.20493	538.53668	515.96527	41.82202	534.26215	510.83289	
880	8.790	-241.28958	18.54693	-284.69876	118.69254	105.07384	-318.54669	-231.60747	91.97777	315.10617	156.54207	15.59966	327.29657	-52.61802	1213.08289	-404.38773	-143.04034	587.40607	-427.88150	16.65804	589.13239	-433.31476	-111.50982	538.16467	516.72668	44.62687	534.37732	511.90906	
881	8.800	-240.20274	18.20924	-284.63950	119.67981	115.66895	-316.80212	-230.40434	101.87724	317.26590	157.13901	15.41565	327.12894	-53.27017	1211.86609	-406.26279	-142.45981	586.74768	-427.49762	17.98717	588.41333	-432.78854	-110.42628	538.62177	517.34174	44.96449	534.24603	511.71039	
